<?xml version="1.0" standalone="no"?>
<!DOCTYPE svg PUBLIC "-//W3C//DTD SVG 20010904//EN"
 "http://www.w3.org/TR/2001/REC-SVG-20010904/DTD/svg10.dtd">
<svg version="1.0" xmlns="http://www.w3.org/2000/svg"
 width="199.000000pt" height="117.000000pt" viewBox="0 0 199.000000 117.000000"
 preserveAspectRatio="xMidYMid meet">
<metadata>
Created by potrace 1.16, written by Peter Selinger 2001-2019
</metadata>
<g transform="translate(0.000000,117.000000) scale(0.100000,-0.100000)"
fill="#000000" stroke="none">
<path d="M1129 849 c-1 -24 -1 -126 -1 -227 1 -101 -3 -194 -8 -208 -24 -62
-77 1 -67 82 2 25 0 44 -5 44 -5 0 -9 19 -7 43 3 60 0 101 -8 93 -12 -12 -16
-56 -9 -98 2 -16 1 -30 -3 -33 -4 -2 -6 -29 -3 -60 3 -37 1 -55 -7 -55 -6 0
-11 -7 -11 -15 0 -26 -17 -16 -23 14 -4 18 -18 35 -39 48 -33 19 -35 19 -67 2
-18 -9 -39 -26 -47 -36 -12 -16 -13 -6 -12 82 1 127 -11 257 -24 249 -5 -4 -7
-22 -3 -40 3 -19 2 -34 -3 -34 -5 0 -7 -25 -4 -55 3 -35 1 -55 -6 -55 -7 0 -9
-19 -5 -54 3 -30 2 -75 -1 -100 -7 -43 -9 -46 -37 -46 l-29 0 0 -110 0 -110
285 0 286 0 -3 112 -3 113 -35 3 c-28 2 -38 9 -48 32 -14 32 -14 103 1 138 8
16 7 26 -1 34 -15 15 -16 94 -2 103 7 4 6 13 -1 27 -6 11 -8 35 -4 55 6 32 5
34 -15 28 -19 -6 -20 -3 -18 29 1 19 -1 38 -5 42 -4 4 -7 -13 -8 -37z m-229
-504 c0 -16 -6 -25 -15 -25 -8 0 -15 5 -15 10 0 6 -25 10 -55 10 l-55 0 0 -55
0 -55 54 0 c54 0 55 0 58 32 2 25 9 34 28 38 20 5 25 12 25 35 1 26 5 30 33
33 l32 3 0 -86 0 -86 -32 3 c-29 3 -33 7 -36 36 -4 43 -22 41 -22 -3 l0 -36
-82 3 -83 3 -3 69 c-2 38 -1 75 2 83 4 9 28 13 86 13 79 0 80 0 80 -25z m148
-48 c3 -59 5 -67 22 -67 11 0 20 5 20 10 0 6 -4 10 -10 10 -5 0 -10 16 -10 35
0 33 2 35 35 35 33 0 35 -2 35 -35 0 -19 -4 -35 -10 -35 -5 0 -10 -4 -10 -10
0 -5 9 -10 20 -10 18 0 20 7 20 71 0 52 3 70 13 67 8 -3 13 -32 15 -86 l3 -82
-86 0 -85 0 0 86 c0 64 3 85 13 82 7 -3 13 -29 15 -71z"/>
</g>
</svg>
